<?xml version="1.0" encoding="UTF-8" standalone="no"?>
<!-- Created with Inkscape (http://www.inkscape.org/) -->

<svg
   width="128"
   height="128"
   viewBox="0 0 128 128"
   version="1.1"
   id="svg5"
   inkscape:version="1.1.2 (0a00cf5339, 2022-02-04)"
   sodipodi:docname="giles_colorful.svg"
   xmlns:inkscape="http://www.inkscape.org/namespaces/inkscape"
   xmlns:sodipodi="http://sodipodi.sourceforge.net/DTD/sodipodi-0.dtd"
   xmlns="http://www.w3.org/2000/svg"
   xmlns:svg="http://www.w3.org/2000/svg">
  <sodipodi:namedview
     id="namedview7"
     pagecolor="#505050"
     bordercolor="#ffffff"
     borderopacity="1"
     inkscape:pageshadow="0"
     inkscape:pageopacity="0"
     inkscape:pagecheckerboard="1"
     inkscape:document-units="px"
     showgrid="false"
     inkscape:snap-page="true"
     inkscape:snap-bbox="true"
     inkscape:snap-object-midpoints="true"
     inkscape:snap-midpoints="true"
     inkscape:snap-smooth-nodes="true"
     inkscape:snap-intersection-paths="true"
     inkscape:bbox-paths="true"
     inkscape:bbox-nodes="true"
     inkscape:snap-bbox-edge-midpoints="true"
     inkscape:snap-bbox-midpoints="true"
     inkscape:zoom="6.1500321"
     inkscape:cx="90.568633"
     inkscape:cy="85.528009"
     inkscape:window-width="2560"
     inkscape:window-height="1371"
     inkscape:window-x="0"
     inkscape:window-y="0"
     inkscape:window-maximized="1"
     inkscape:current-layer="layer2" />
  <defs
     id="defs2">
    <inkscape:path-effect
       effect="fill_between_many"
       method="originald"
       linkedpaths="#path10585,0,1"
       id="path-effect10704"
       is_visible="true"
       lpeversion="0"
       join="true"
       close="true"
       autoreverse="true"
       applied="false" />
  </defs>
  <g
     inkscape:groupmode="layer"
     id="layer2"
     inkscape:label="Layer 1"
     style="display:inline">
    <ellipse
       style="display:inline;fill:#87deaa;fill-opacity:1;stroke:none;stroke-width:2.7929;stroke-opacity:1"
       id="path10849"
       cx="64.11705"
       cy="64.372932"
       ry="61.578793"
       rx="61.928722" />
    <ellipse
       style="display:inline;fill:none;fill-rule:evenodd;stroke:#000000;stroke-width:7.5;stroke-miterlimit:4;stroke-dasharray:none;stroke-opacity:1"
       id="path122"
       cx="64"
       cy="63.999996"
       rx="60.123268"
       ry="60.123264" />
    <path
       style="display:inline;fill:#b380ff;fill-opacity:1;stroke:#000000;stroke-width:7.5;stroke-linecap:butt;stroke-linejoin:miter;stroke-miterlimit:4;stroke-dasharray:none;stroke-opacity:1"
       d="m 52.682647,120.88458 c 3.054629,-8.20109 1.949733,-15.45927 -1.058216,-22.080898 L 46.757557,91.641198 C 40.35755,83.487468 30.708736,75.347412 30.757785,63.350943 L 31.147664,49.982697 C 33.215851,42.655539 27.652589,35.83795 26.92905,30.596382 l -1.044299,-8.915483 2.338909,-0.488718 c 2.934455,0.520696 7.309302,3.836028 9.841096,5.95824 2.268792,1.866471 6.421377,5.914858 9.646088,6.196093 l 8.533142,-2.467633 4.806634,-13.428699 c 0.905902,-3.397371 4.340667,-7.6688703 5.58083,-9.4849754 v 0 c 2.145134,3.5673854 3.133405,8.4752164 4.673707,13.4127064 l 1.559119,4.602991 c 1.181649,4.310359 2.477016,5.652745 3.84428,7.958693 2.927268,4.235364 2.55543,4.1227 6.911131,9.204124 4.15179,4.49679 4.607891,7.034635 6.01647,13.02223 1.323482,6.044818 1.164048,15.743466 1.531398,22.109431 0.816152,3.252365 3.822023,7.357376 5.909229,10.212303 2.744589,3.226028 7.587896,5.71353 15.178446,9.184468 C 95.059366,119.5132 76.398872,124.15468 52.682647,120.88458 Z"
       id="path1088"
       sodipodi:nodetypes="ccccccccccccccccccccccc" />
  </g>
</svg>
