<svg width="128" height="128" xmlns="http://www.w3.org/2000/svg"><g style="display:inline"><ellipse style="display:inline;fill:#f5f5f5;fill-opacity:1;stroke:none;stroke-width:2.7929;stroke-opacity:1" cx="64.117" cy="64.373" ry="61.579" rx="61.929"/><circle style="display:inline;fill:none;fill-rule:evenodd;stroke:#000;stroke-width:7.5;stroke-miterlimit:4;stroke-dasharray:none;stroke-opacity:1" cx="64" cy="64" r="60.123"/><path style="display:inline;fill:#aa87de;fill-opacity:1;stroke:#000;stroke-width:7.5;stroke-linecap:butt;stroke-linejoin:miter;stroke-miterlimit:4;stroke-dasharray:none;stroke-opacity:1" d="M49.59 122.287c3.055-8.202 5.042-16.862 2.034-23.483l-4.866-7.163c-6.4-8.154-16.05-16.294-16-28.29l.39-13.368c2.068-7.327-3.495-14.145-4.219-19.387l-1.044-8.915 2.339-.489c2.934.52 7.309 3.836 9.84 5.958 2.27 1.867 6.422 5.915 9.647 6.197l8.533-2.468 4.807-13.429c.906-3.397 4.34-7.669 5.58-9.485 2.146 3.568 3.134 8.475 4.674 13.413l1.56 4.603c1.18 4.31 2.476 5.653 3.844 7.959 2.927 4.235 2.555 4.122 6.91 9.204 4.152 4.497 4.609 7.034 6.017 13.022 1.324 6.045 1.164 15.743 1.532 22.11.816 3.252 3.822 7.357 5.909 10.212 2.744 3.226 8.461 5.802 16.052 9.273-13.773 24.562-49.012 28.19-63.538 24.526Z"/></g></svg>