<svg width="100%" height="100%" viewBox="0 0 1000 400" xmlns="http://www.w3.org/2000/svg" preserveAspectRatio="none">
  <defs>
    <linearGradient id="backMountains" x1="0%" y1="0%" x2="100%" y2="100%">
      <stop offset="0%" style="stop-color:#d8d8d8;stop-opacity:1" />
      <stop offset="50%" style="stop-color:#c8c8c8;stop-opacity:1" />
      <stop offset="100%" style="stop-color:#b8b8b8;stop-opacity:1" />
    </linearGradient>
    <linearGradient id="frontMountains" x1="0%" y1="0%" x2="100%" y2="100%">
      <stop offset="0%" style="stop-color:#e8e8e8;stop-opacity:1" />
      <stop offset="50%" style="stop-color:#d0d0d0;stop-opacity:1" />
      <stop offset="100%" style="stop-color:#c8c8c8;stop-opacity:1" />
    </linearGradient>
  </defs>
  
  <!-- Sunrise arcs - three curved bands like a rainbow -->
  <!-- Outer arc -->
  <path d="M 50,300 Q 500,-50 950,300" stroke="#ffeaa7" stroke-width="70" fill="none" opacity="0.4" />
  
  <!-- Middle arc -->
  <path d="M 0,350 Q 500,-50 1000,350" stroke="#ffeaa7" stroke-width="50" fill="none" opacity="1" />
  
  <!-- Inner arc -->
  <path d="M -100,500 Q 500,-50 1100,500" stroke="#fab1a0" stroke-width="100" fill="none" opacity="1" />
  
  <!-- Back range -->
  <polygon points="0,400 0,290 125,160 250,280 375,180 500,300 625,140 750,260 875,170 1000,280 1000,400" fill="url(#backMountains)" />
  
  <!-- Front range -->
  <polygon points="0,400 0,280 100,220 200,320 300,160 400,300 500,200 600,280 700,180 800,260 900,220 1000,270 1000,500" fill="url(#frontMountains)" />
</svg>
